<?xml version="1.0" encoding="UTF-8" standalone="no"?>
<!-- Created with Inkscape (http://www.inkscape.org/) -->

<svg
   version="1.1"
   id="svg1"
   width="388.20001"
   height="305.46667"
   viewBox="0 0 388.20001 305.46667"
   sodipodi:docname="upload_dnbzmqtnlihtizm3hc2rckslpx.pdf"
   xmlns:inkscape="http://www.inkscape.org/namespaces/inkscape"
   xmlns:sodipodi="http://sodipodi.sourceforge.net/DTD/sodipodi-0.dtd"
   xmlns="http://www.w3.org/2000/svg"
   xmlns:svg="http://www.w3.org/2000/svg">
  <defs
     id="defs1" />
  <sodipodi:namedview
     id="namedview1"
     pagecolor="#ffffff"
     bordercolor="#000000"
     borderopacity="0.25"
     inkscape:showpageshadow="2"
     inkscape:pageopacity="0.0"
     inkscape:pagecheckerboard="0"
     inkscape:deskcolor="#d1d1d1">
    <inkscape:page
       x="0"
       y="0"
       inkscape:label="1"
       id="page1"
       width="388.20001"
       height="305.46667"
       margin="0"
       bleed="0" />
  </sodipodi:namedview>
  <g
     id="g1"
     inkscape:groupmode="layer"
     inkscape:label="1">
    <path
       id="path1"
       d="M 0,0 90.7097,56.69362 204.09694,8.50412 113.38724,-48.18947 Z"
       style="fill:#d9d9d9;fill-opacity:1;fill-rule:nonzero;stroke:#000000;stroke-width:0.49814;stroke-linecap:butt;stroke-linejoin:miter;stroke-miterlimit:10;stroke-dasharray:none;stroke-opacity:1"
       transform="matrix(1.3333333,0,0,-1.3333333,78.456,186.024)" />
    <path
       id="path2"
       d="m 113.38724,-48.18947 79.37114,-31.18167"
       style="fill:none;stroke:#000000;stroke-width:0.49814;stroke-linecap:butt;stroke-linejoin:miter;stroke-miterlimit:10;stroke-dasharray:none;stroke-opacity:1"
       transform="matrix(1.3333333,0,0,-1.3333333,78.456,186.024)" />
    <path
       id="path3"
       d="M 0,0 V 105.3481"
       style="fill:none;stroke:#000000;stroke-width:1.19553;stroke-linecap:butt;stroke-linejoin:miter;stroke-miterlimit:10;stroke-dasharray:none;stroke-opacity:1"
       transform="matrix(1.3333333,0,0,-1.3333333,78.456,186.024)" />
    <path
       id="path4"
       d="M 6.61374,0 2.0866,1.52672 3.59862,0 2.0866,-1.52672 Z"
       style="fill:#000000;fill-opacity:1;fill-rule:nonzero;stroke:#000000;stroke-width:1.19553;stroke-linecap:butt;stroke-linejoin:miter;stroke-miterlimit:10;stroke-dasharray:none;stroke-opacity:1"
       transform="matrix(0,-1.3333333,-1.3333333,0,78.456,49.959547)" />
    <g
       id="g4"
       aria-label="(h−u&#10;o&#10;)"
       transform="matrix(1.3333333,0,0,1.3333333,17.949333,115.32267)">
      <path
         id="path5"
         d="m 3.0702266,2.1456953 c 0,-0.046875 -0.023437,-0.070312 -0.082031,-0.140625 -1.1601562,-1.05468749 -1.5117187,-2.68359374 -1.5117187,-4.2539062 0,-1.3945313 0.2695312,-3.0820313 1.5351562,-4.2890625 0.035156,-0.035156 0.058594,-0.070312 0.058594,-0.1171875 0,-0.058594 -0.046875,-0.09375 -0.1054688,-0.09375 -0.1171875,0 -0.9257812,0.6445312 -1.40625,1.6289062 -0.4335937,0.8671875 -0.64453124,1.7929688 -0.64453124,2.859375 0,0.65625 0.0703125,1.67578126 0.57421874,2.74218751 0.5273438,1.10156249 1.359375,1.75781249 1.4765625,1.75781249 0.058594,0 0.1054688,-0.035156 0.1054683,-0.09375 z m 0,0"
         style="fill:#000000;fill-opacity:1;fill-rule:nonzero;stroke:none" />
      <path
         id="path6"
         d="m 6.1756953,-5.9402422 c 0.035156,-0.1289062 0.035156,-0.140625 0.035156,-0.1757812 0,-0.082031 -0.046875,-0.1289063 -0.1289063,-0.1289063 -0.1289062,0 -0.9140625,0.070312 -1.1015625,0.09375 -0.082031,0 -0.1875,0.011719 -0.1875,0.1640625 0,0.1171875 0.1054688,0.1171875 0.2460938,0.1171875 0.421875,0 0.421875,0.070312 0.421875,0.1523438 0,0.035156 0,0.046875 -0.046875,0.2109375 l -1.2890625,5.17968746 c -0.035156,0.1171875 -0.035156,0.140625 -0.035156,0.1640625 0,0.140625 0.1171875,0.2578125 0.28125,0.2578125 0.1523438,0 0.28125,-0.08203125 0.3398438,-0.2109375 0.023437,-0.046875 0.1054687,-0.36328125 0.1523437,-0.5625 L 5.0624141,-1.4753984 c 0.023437,-0.1289063 0.1171875,-0.4804688 0.140625,-0.609375 l 0.1171875,-0.3984375 c 0.046875,-0.2109375 0.5507812,-1.265625 1.5234375,-1.265625 0.4921875,0 0.4921875,0.46875 0.4921875,0.6328125 0,0.5390625 -0.421875,1.640625 -0.5273438,1.921875 -0.1054687,0.28124996 -0.140625,0.36328121 -0.140625,0.53906246 0,0.48046875 0.3632813,0.75 0.7734375,0.75 0.8671875,0 1.21875,-1.27734376 1.21875,-1.38281246 0,-0.046875 -0.035156,-0.1054688 -0.1171875,-0.1054688 -0.1054687,0 -0.1171875,0.046875 -0.1523437,0.1640625 -0.2226563,0.76171876 -0.5976563,1.10156251 -0.9257813,1.10156251 -0.058594,0 -0.2226562,0 -0.2226562,-0.28125 0,-0.234375 0.09375,-0.45703125 0.1640625,-0.65625001 0.1757812,-0.46875 0.5390625,-1.4179687 0.5390625,-1.921875 0,-0.796875 -0.5976563,-0.984375 -1.0664063,-0.984375 -0.5507812,0 -1.0078125,0.2460938 -1.359375,0.6914063 z m 0,0"
         style="fill:#000000;fill-opacity:1;fill-rule:nonzero;stroke:none" />
      <path
         id="path7"
         d="m 17.053625,-2.0613359 c 0.164062,0 0.339844,0 0.339844,-0.1992188 0,-0.1875 -0.1875,-0.1875 -0.339844,-0.1875 h -4.96875 c -0.152344,0 -0.328125,0 -0.328125,0.1875 0,0.1992188 0.175781,0.1992188 0.328125,0.1992188 z m 0,0"
         style="fill:#000000;fill-opacity:1;fill-rule:nonzero;stroke:none" />
      <path
         id="path8"
         d="m 24.615148,-2.9285234 c 0.05859,-0.234375 0.164063,-0.65625 0.164063,-0.6914063 0,-0.1171875 -0.08203,-0.2578125 -0.28125,-0.2578125 -0.128906,0 -0.257813,0.082031 -0.328125,0.1875 -0.03516,0.09375 -0.65625,2.53125 -0.703125,2.82421876 -0.1875,0.328125 -0.550781,0.73828125 -1.042969,0.73828125 -0.5625,0 -0.5625,-0.5625 -0.5625,-0.73828125 0,-0.39843746 0.117188,-0.84374996 0.503906,-1.85156246 0.07031,-0.2109375 0.128907,-0.328125 0.128907,-0.5039063 0,-0.4453125 -0.339844,-0.75 -0.773438,-0.75 -0.867187,0 -1.230469,1.2773438 -1.230469,1.3828125 0,0.082031 0.07031,0.1054688 0.128907,0.1054688 0.09375,0 0.105468,-0.058594 0.140625,-0.1757813 0.1875,-0.6445312 0.539062,-1.0898437 0.925781,-1.0898437 0.199219,0 0.222656,0.1289062 0.222656,0.2929687 0,0.1523438 -0.03516,0.3164063 -0.117187,0.5273438 -0.421875,1.125 -0.539063,1.5 -0.539063,1.93359371 0,0.99609375 0.808594,1.08984375 1.136719,1.08984375 0.515625,0 0.890625,-0.3046875 1.101562,-0.5859375 0.175782,0.5859375 0.761719,0.5859375 0.820313,0.5859375 0.257812,0 0.480469,-0.1171875 0.679687,-0.46875 0.152344,-0.3046875 0.292969,-0.87890626 0.292969,-0.91406246 0,-0.046875 -0.02344,-0.1054688 -0.117187,-0.1054688 -0.105469,0 -0.117188,0.046875 -0.152344,0.2109375 -0.1875,0.71484376 -0.375,1.05468751 -0.679688,1.05468751 -0.210937,0 -0.28125,-0.1875 -0.28125,-0.41015625 0,-0.17578125 0.04687,-0.3515625 0.128907,-0.66796876 l 0.222656,-0.9257812 z m 0,0"
         style="fill:#000000;fill-opacity:1;fill-rule:nonzero;stroke:none" />
      <path
         id="path9"
         d="m 28.954016,-0.570125 c 0,-0.609375 -0.46875,-1.0664062 -1.160157,-1.0664062 -0.902343,0 -1.78125,0.79687495 -1.78125,1.6289062 0,0.64453125 0.503907,1.0664063 1.148438,1.0664063 0.9375,0 1.792969,-0.8085938 1.792969,-1.6289063 z m -1.78125,1.4296875 c -0.339844,0 -0.644532,-0.2109375 -0.644532,-0.66796875 0,-0.19921875 0.09375,-0.75 0.339844,-1.1015625 0.257813,-0.36328125 0.621094,-0.52734375 0.914063,-0.52734375 0.304687,0 0.644531,0.1757813 0.644531,0.66796875 0,0.15234375 -0.05859,0.75 -0.386719,1.18359375 -0.1875,0.234375 -0.527344,0.4453125 -0.867187,0.4453125 z m 0,0"
         style="fill:#000000;fill-opacity:1;fill-rule:nonzero;stroke:none" />
      <path
         id="path10"
         d="m 32.396398,-2.2605547 c 0,-0.7382812 -0.105468,-1.7226562 -0.574218,-2.71875 -0.539063,-1.1132812 -1.371094,-1.7695312 -1.476563,-1.7695312 -0.09375,0 -0.105469,0.070312 -0.105469,0.09375 0,0.046875 0.01172,0.082031 0.07031,0.140625 0.527344,0.46875 1.511719,1.6875 1.511719,4.2539062 0,1.28906251 -0.222657,3.08203126 -1.535157,4.3007813 -0.01172,0.023437 -0.04687,0.058594 -0.04687,0.1054687 0,0.023437 0.01172,0.09375 0.105469,0.09375 0.105469,0 0.914063,-0.6445312 1.40625,-1.62890624 0.421875,-0.8671875 0.644531,-1.79296876 0.644531,-2.87109376 z m 0,0"
         style="fill:#000000;fill-opacity:1;fill-rule:nonzero;stroke:none" />
    </g>
    <path
       id="path11"
       d="M 0,0 65.5832,122.96878"
       style="fill:none;stroke:#000000;stroke-width:1.19553;stroke-linecap:butt;stroke-linejoin:miter;stroke-miterlimit:10;stroke-dasharray:none;stroke-opacity:1"
       transform="matrix(1.3333333,0,0,-1.3333333,78.456,186.024)" />
    <path
       id="path12"
       d="M 6.61374,0 2.0866,1.52672 3.59862,0 2.0866,-1.52672 Z"
       style="fill:#000000;fill-opacity:1;fill-rule:nonzero;stroke:#000000;stroke-width:1.19553;stroke-linecap:butt;stroke-linejoin:miter;stroke-miterlimit:10;stroke-dasharray:none;stroke-opacity:1"
       transform="matrix(0.62742667,-1.1764267,-1.1764267,-0.62742667,163.82996,25.94756)" />
    <path
       id="path13"
       d="m 2.5767344,-5.9420078 c 0.035156,-0.1289063 0.035156,-0.140625 0.035156,-0.1757813 0,-0.082031 -0.046875,-0.1289062 -0.1289062,-0.1289062 -0.1289063,0 -0.9140625,0.070312 -1.1015625,0.09375 -0.082031,0 -0.1875,0.011719 -0.1875,0.1640625 0,0.1171875 0.1054687,0.1171875 0.2460937,0.1171875 0.421875,0 0.421875,0.070312 0.421875,0.1523437 0,0.035156 0,0.046875 -0.046875,0.2109375 l -1.28906247,5.17968754 c -0.0351563,0.1171875 -0.0351563,0.140625 -0.0351563,0.1640625 0,0.140625 0.1171875,0.2578125 0.28125,0.2578125 0.15234375,0 0.28125007,-0.08203125 0.33984377,-0.2109375 0.023437,-0.046875 0.1054688,-0.36328125 0.1523438,-0.5625 L 1.4634531,-1.4771641 c 0.023437,-0.1289062 0.1171875,-0.4804687 0.140625,-0.609375 l 0.1171875,-0.3984375 c 0.046875,-0.2109375 0.5507813,-1.265625 1.5234375,-1.265625 0.4921875,0 0.4921875,0.46875 0.4921875,0.6328125 0,0.5390625 -0.421875,1.640625 -0.5273437,1.921875 -0.1054688,0.28125004 -0.140625,0.36328129 -0.140625,0.53906254 0,0.48046875 0.3632812,0.75 0.7734375,0.75 0.8671875,0 1.21875,-1.27734374 1.21875,-1.38281254 0,-0.046875 -0.035156,-0.1054687 -0.1171875,-0.1054687 -0.1054688,0 -0.1171875,0.046875 -0.1523438,0.1640625 -0.2226562,0.76171874 -0.5976562,1.10156249 -0.9257812,1.10156249 -0.058594,0 -0.2226563,0 -0.2226563,-0.28125 0,-0.234375 0.09375,-0.45703125 0.1640625,-0.65624999 0.1757813,-0.46875 0.5390625,-1.4179688 0.5390625,-1.921875 0,-0.796875 -0.5976562,-0.984375 -1.0664062,-0.984375 -0.5507813,0 -1.0078125,0.2460937 -1.359375,0.6914062 z m 0,0"
       style="fill:#000000;fill-opacity:1;fill-rule:nonzero;stroke:none"
       aria-label="h"
       transform="matrix(1.3333333,0,0,1.3333333,109.13467,96.645333)" />
    <path
       id="path14"
       d="M 0,0 62.98329,15.74617"
       style="fill:none;stroke:#000000;stroke-width:1.19553;stroke-linecap:butt;stroke-linejoin:miter;stroke-miterlimit:10;stroke-dasharray:none;stroke-opacity:1"
       transform="matrix(1.3333333,0,0,-1.3333333,78.456,186.024)" />
    <path
       id="path15"
       d="M 6.61374,0 2.0866,1.52672 3.59862,0 2.0866,-1.52672 Z"
       style="fill:#000000;fill-opacity:1;fill-rule:nonzero;stroke:#000000;stroke-width:1.19553;stroke-linecap:butt;stroke-linejoin:miter;stroke-miterlimit:10;stroke-dasharray:none;stroke-opacity:1"
       transform="matrix(1.29352,-0.32334667,-0.32334667,-1.29352,158.16543,166.09607)" />
    <g
       id="g15"
       aria-label="u&#10;o"
       transform="matrix(1.3333333,0,0,1.3333333,169.48533,176.63333)">
      <path
         id="path16"
         d="m 4.3820938,-2.9300781 c 0.058594,-0.234375 0.1640625,-0.65625 0.1640625,-0.6914063 0,-0.1171875 -0.082031,-0.2578125 -0.28125,-0.2578125 -0.1289063,0 -0.2578125,0.082031 -0.328125,0.1875 -0.035156,0.09375 -0.65625,2.53125 -0.703125,2.82421878 -0.1875,0.328125 -0.5507813,0.73828125 -1.0429688,0.73828125 -0.5625,0 -0.5625,-0.5625 -0.5625,-0.73828125 0,-0.39843748 0.1171875,-0.84374998 0.5039063,-1.85156248 C 2.2024063,-2.9300781 2.261,-3.0472656 2.261,-3.2230469 c 0,-0.4453125 -0.3398437,-0.75 -0.7734375,-0.75 -0.8671875,0 -1.23046875,1.2773438 -1.23046875,1.3828125 0,0.082031 0.0703125,0.1054688 0.12890625,0.1054688 0.09375,0 0.10546875,-0.058594 0.140625,-0.1757813 0.1875,-0.6445312 0.5390625,-1.0898437 0.9257813,-1.0898437 0.1992187,0 0.2226562,0.1289062 0.2226562,0.2929687 0,0.1523438 -0.035156,0.3164063 -0.1171875,0.5273438 -0.421875,1.125 -0.5390625,1.5 -0.5390625,1.93359373 0,0.996093745 0.8085938,1.08984375 1.1367188,1.08984375 0.515625,0 0.890625,-0.3046875 1.1015625,-0.5859375 0.1757812,0.5859375 0.7617187,0.5859375 0.8203125,0.5859375 0.2578125,0 0.4804687,-0.1171875 0.6796875,-0.46875 0.1523437,-0.3046875 0.2929687,-0.87890628 0.2929687,-0.91406248 0,-0.046875 -0.023437,-0.1054688 -0.1171875,-0.1054688 -0.1054687,0 -0.1171875,0.046875 -0.1523437,0.2109375 -0.1875,0.71484378 -0.375,1.05468753 -0.6796875,1.05468753 -0.2109375,0 -0.28125,-0.1875 -0.28125,-0.41015625 0,-0.17578125 0.046875,-0.3515625 0.1289062,-0.66796878 l 0.2226563,-0.9257812 z m 0,0"
         style="fill:#000000;fill-opacity:1;fill-rule:nonzero;stroke:none" />
      <path
         id="path17"
         d="m 8.7209609,-0.57167969 c 0,-0.60937501 -0.46875,-1.06640621 -1.1601562,-1.06640621 -0.9023438,0 -1.78125,0.79687496 -1.78125,1.62890621 0,0.64453125 0.5039062,1.06640629 1.1484375,1.06640629 0.9375,0 1.7929687,-0.80859379 1.7929687,-1.62890629 z m -1.78125,1.4296875 c -0.3398437,0 -0.6445312,-0.2109375 -0.6445312,-0.66796875 0,-0.19921875 0.09375,-0.75 0.3398437,-1.1015625 0.2578125,-0.36328126 0.6210938,-0.52734376 0.9140625,-0.52734376 0.3046875,0 0.6445313,0.1757813 0.6445313,0.66796876 0,0.15234375 -0.058594,0.75 -0.3867188,1.18359375 -0.1875,0.234375 -0.5273437,0.4453125 -0.8671875,0.4453125 z m 0,0"
         style="fill:#000000;fill-opacity:1;fill-rule:nonzero;stroke:none" />
    </g>
    <path
       id="path18"
       d="M 68.03217,17.00824 V 122.35635"
       style="fill:none;stroke:#000000;stroke-width:1.19553;stroke-linecap:butt;stroke-linejoin:miter;stroke-miterlimit:10;stroke-dasharray:none;stroke-opacity:1"
       transform="matrix(1.3333333,0,0,-1.3333333,78.456,186.024)" />
    <path
       id="path19"
       d="M 6.61374,0 2.0866,1.52672 3.59862,0 2.0866,-1.52672 Z"
       style="fill:#000000;fill-opacity:1;fill-rule:nonzero;stroke:#000000;stroke-width:1.19553;stroke-linecap:butt;stroke-linejoin:miter;stroke-miterlimit:10;stroke-dasharray:none;stroke-opacity:1"
       transform="matrix(0,-1.3333333,-1.3333333,0,169.16556,27.281867)" />
    <path
       id="path20"
       d="m 58.40706,14.60223 v 9.92137 l 9.62511,2.40601"
       style="fill:none;stroke:#000000;stroke-width:0.49814;stroke-linecap:butt;stroke-linejoin:miter;stroke-miterlimit:10;stroke-dasharray:none;stroke-opacity:1"
       transform="matrix(1.3333333,0,0,-1.3333333,78.456,186.024)" />
    <path
       id="path21"
       d="M 1.99255,0 C 1.99255,1.10046 1.10046,1.99255 0,1.99255 -1.10046,1.99255 -1.99255,1.10046 -1.99255,0 c 0,-1.10046 0.89209,-1.99255 1.99255,-1.99255 1.10046,0 1.99255,0.89209 1.99255,1.99255 z"
       style="fill:#000000;fill-opacity:1;fill-rule:nonzero;stroke:none"
       transform="matrix(1.3333333,0,0,-1.3333333,78.456,186.024)" />
    <path
       id="path22"
       d="m 70.02472,17.00824 c 0,1.10046 -0.89209,1.99256 -1.99255,1.99256 -1.10048,0 -1.99256,-0.8921 -1.99256,-1.99256 0,-1.10048 0.89208,-1.99255 1.99256,-1.99255 1.10046,0 1.99255,0.89207 1.99255,1.99255 z"
       style="fill:#000000;fill-opacity:1;fill-rule:nonzero;stroke:none"
       transform="matrix(1.3333333,0,0,-1.3333333,78.456,186.024)" />
    <path
       id="path23"
       d="m 70.02472,127.56062 c 0,1.10048 -0.89209,1.99256 -1.99255,1.99256 -1.10048,0 -1.99256,-0.89208 -1.99256,-1.99256 0,-1.10046 0.89208,-1.99255 1.99256,-1.99255 1.10046,0 1.99255,0.89209 1.99255,1.99255 z"
       style="fill:#000000;fill-opacity:1;fill-rule:nonzero;stroke:none"
       transform="matrix(1.3333333,0,0,-1.3333333,78.456,186.024)" />
    <path
       id="path24"
       d="m 6.8215,-3.9024063 c 0,-1.4179687 -0.9492187,-2.4375 -2.3671875,-2.4375 -2.015625,0 -4.0078125,2.0625 -4.0078125,4.1132813 0,1.4765625 1.0195313,2.42578125 2.3789063,2.42578125 2.0039062,0 3.9960937,-2.00390625 3.9960937,-4.10156255 z M 2.8957188,-0.070375 c -0.8671875,0 -1.5820313,-0.65625 -1.5820313,-1.921875 0,-0.46875 0.1523438,-1.8046875 0.9023438,-2.8359375 0.6445312,-0.8789063 1.5117187,-1.265625 2.1796875,-1.265625 0.8789062,0 1.6054687,0.6445312 1.6054687,1.8515625 0,0.5859375 -0.234375,1.8984375 -0.984375,2.9179687 -0.6796875,0.9023438 -1.5,1.2539063 -2.1210937,1.2539063 z m 0,0"
       style="fill:#000000;fill-opacity:1;fill-rule:nonzero;stroke:none"
       aria-label="O"
       transform="matrix(1.3333333,0,0,1.3333333,57.154667,192.78133)" />
    <g
       id="g24"
       aria-label="线性子空间ϑ"
       transform="matrix(1.3333333,0,0,1.3333333,298.824,137.44667)">
      <path
         id="path25"
         d="m 5.4845391,-4.7822656 c 0,0.328125 0.023437,0.7617187 0.070312,1.3007812 l 1.6523437,-0.1757812 0.4570313,-0.5273438 0.703125,0.5976563 -2.7773438,0.28125 c 0.070312,0.7265625 0.1875,1.3007812 0.3515625,1.7226562 0.515625,-0.46875 0.9257813,-0.9609375 1.2304688,-1.4765625 l 0.6328125,0.6328125 -0.3164063,0.035156 c -0.4453125,0.421875 -0.890625,0.84375 -1.3359375,1.265625 0.421875,0.58593748 0.9140625,0.99902341 1.4765625,1.23046873 l 0.4921875,-1.68750003 0.140625,0.035156 c -0.046875,0.5390625 -0.079102,0.98437498 -0.09375,1.33593748 -0.00879,0.34863281 0.046875,0.6328125 0.1640625,0.84375 0.023437,0.046875 0.035156,0.0820313 0.035156,0.10546875 0,0.09375 -0.1259766,0.12011718 -0.375,0.0820313 C 7.7491875,0.78707031 7.4210625,0.64644531 7.0079766,0.39742188 6.60075,0.15425781 6.1876641,-0.23539062 5.7657891,-0.77445312 c -0.421875,0.28125 -0.8525391,0.515625 -1.2890625,0.703125 -0.4306641,0.1875 -0.9726563,0.375 -1.6289063,0.5625 l -0.035156,-0.140625 c 1.0078125,-0.37207032 1.9101562,-0.890625 2.7070312,-1.54687498 -0.2109375,-0.6328125 -0.3515625,-1.3125 -0.421875,-2.0390625 l -1.4414062,0.1757812 -0.28125,0.140625 -0.3867188,-0.28125 2.0742188,-0.2109375 c -0.023437,-0.328125 -0.046875,-0.7734375 -0.070312,-1.3359375 l -1.0195313,0.070312 -0.2109375,0.140625 -0.3164062,-0.28125 1.546875,-0.1054687 c -0.023437,-0.8203125 -0.046875,-1.640625 -0.070312,-2.4609375 l 0.8085937,0.3867187 -0.28125,0.2460938 c 0,0.4921875 0.011719,1.0898437 0.035156,1.7929687 l 1.5117187,-0.140625 0.4570313,-0.5273437 0.703125,0.6328125 z m 0.5273437,-2.0039063 0.035156,-0.1054687 c 0.7265625,0.1875 1.125,0.3486328 1.1953125,0.4804687 0.070312,0.1259766 0.1054687,0.234375 0.1054687,0.328125 0,0.1171875 -0.023437,0.234375 -0.070312,0.3515625 -0.046875,0.1171875 -0.09375,0.1757813 -0.140625,0.1757813 -0.046875,0 -0.1171875,-0.09375 -0.2109375,-0.28125 -0.1640625,-0.2578125 -0.46875,-0.5742188 -0.9140627,-0.9492188 z m -3.8671875,-0.4570312 0.703125,0.4570312 c -0.1875,0.070312 -0.3867187,0.3046875 -0.5976562,0.703125 -0.2109375,0.421875 -0.5976563,1.0195313 -1.1601563,1.7929688 l 1.4414063,-0.140625 c 0.28125,-0.46875 0.5039062,-0.9375 0.6679687,-1.40625 l 0.6328125,0.4570312 c -0.1640625,0.09375 -0.4453125,0.4335938 -0.84375,1.0195313 -0.3984375,0.5859375 -0.9140625,1.2890625 -1.546875,2.109375 0.328125,-0.046875 1.0546875,-0.1757813 2.1796875,-0.3867188 v 0.140625 c -0.6328125,0.1640625 -1.125,0.3134766 -1.4765625,0.4453125 -0.3515625,0.1259766 -0.703125,0.3046875 -1.0546875,0.5390625 L 0.66813281,-2.2510156 c 0.2578125,-0.070312 0.55371099,-0.319336 0.89062499,-0.75 0.3427735,-0.4365235 0.6445313,-0.8671875 0.9023438,-1.2890625 -0.2578125,0.046875 -0.5273438,0.1142578 -0.8085938,0.1992187 -0.28125,0.079102 -0.5390625,0.2226563 -0.77343749,0.4335938 L 0.49235156,-4.3252344 c 0.2578125,-0.046875 0.55371094,-0.3779297 0.89062504,-0.9960937 0.3427734,-0.6240235 0.5976562,-1.265625 0.7617187,-1.921875 z m -1.68749999,6.71484373 c 0.65624999,-0.09375 1.18359379,-0.17578125 1.58203129,-0.24609375 0.3984375,-0.0703125 1.0429687,-0.19921875 1.9335937,-0.38671878 l 0.035156,0.140625 C 2.9532891,-0.71585937 2.1827813,-0.47269531 1.6993828,-0.29398437 1.2218438,-0.12113281 0.92594531,0.02242188 0.80875781,0.13960938 Z M 14.590008,-4.8525781 c 0,-1.265625 -0.01172,-2.0859375 -0.03516,-2.4609375 l 0.878906,0.3867187 -0.351563,0.2460938 v 1.828125 h 1.019532 l 0.492187,-0.4921875 0.703125,0.703125 h -2.214844 v 1.9335937 h 0.914063 l 0.457031,-0.4570312 0.667969,0.6679687 h -2.039063 v 2.46093753 h 1.371094 l 0.492188,-0.4921875 0.703125,0.703125 h -4.605469 c -0.304688,0 -0.585938,0.0351563 -0.84375,0.10546875 l -0.316406,-0.31640625 h 2.707031 V -2.4971094 h -0.738281 c -0.304688,0 -0.585938,0.035156 -0.84375,0.1054688 L 12.69157,-2.7080469 h 1.898438 v -1.9335937 h -1.441406 c -0.304688,0.75 -0.644532,1.359375 -1.019532,1.828125 l -0.105468,-0.070312 c 0.28125,-0.5625 0.515625,-1.1865235 0.703125,-1.875 0.1875,-0.694336 0.304687,-1.265625 0.351562,-1.7109375 l 0.808594,0.3867187 -0.316406,0.2109375 -0.351563,1.0195313 z m -4.359375,-0.2460938 c 0.07031,0.703125 0.08203,1.1455078 0.03516,1.3242188 -0.04687,0.1728515 -0.125976,0.290039 -0.234375,0.3515625 -0.102539,0.055664 -0.1874999,0.082031 -0.2578124,0.082031 -0.046875,0 -0.1142578,-0.014648 -0.1992188,-0.046875 -0.079102,-0.038086 -0.1171875,-0.070312 -0.1171875,-0.09375 0,-0.09375 0.082031,-0.234375 0.2460938,-0.421875 0.2109375,-0.2578125 0.3398439,-0.65625 0.3867189,-1.1953125 z m 0.984375,-0.4570312 c 0.375,0.140625 0.644531,0.2695312 0.808594,0.3867187 0.164062,0.1171875 0.234375,0.2695313 0.210937,0.4570313 -0.02344,0.1875 -0.08203,0.3164062 -0.175781,0.3867187 -0.09375,0.070312 -0.1875,-0.023437 -0.28125,-0.28125 -0.117188,-0.2578125 -0.304688,-0.515625 -0.5625,-0.7734375 v 4.67578128 c 0,0.3984375 0.01172,0.83203125 0.03516,1.30078125 l -0.5625,0.24609375 c 0.02344,-0.6796875 0.03516,-1.2890625 0.03516,-1.828125 V -5.9424219 c 0,-0.3984375 -0.01172,-0.8789062 -0.03516,-1.4414062 l 0.84375,0.3867187 -0.316406,0.2460938 z m 8.296875,-1.1601563 h 5.167969 l 0.457031,-0.421875 0.667969,0.7734375 c -0.28125,0 -0.641602,0.1259766 -1.078125,0.375 -0.430664,0.2431641 -1.042969,0.6445313 -1.839844,1.2070313 l 0.316406,0.2109375 -0.386719,0.2109375 v 0.6679687 h 2.425782 l 0.5625,-0.5625 0.773437,0.7734375 H 22.81657 v 3.37500003 c 0,0.44238281 -0.304687,0.7734375 -0.914062,0.984375 0,-0.3515625 -0.386719,-0.6328125 -1.160156,-0.84375 v -0.17578125 c 0.632812,0.0703125 1.054687,0.10546875 1.265625,0.10546875 0.210937,0 0.304687,-0.1640625 0.28125,-0.4921875 V -3.4814844 h -2.742188 c -0.304687,0 -0.585937,0.035156 -0.84375,0.1054688 l -0.316406,-0.3164063 h 3.902344 c 0,-0.515625 -0.01172,-1.0195312 -0.03516,-1.5117187 l 0.492188,0.3164062 1.933594,-1.6171875 h -4.007813 c -0.304687,0 -0.585937,0.035156 -0.84375,0.1054688 z m 9.28125,3.7617188 h 4.394531 l 0.457031,-0.421875 0.632813,0.6328125 h -2.53125 v 2.95312498 h 2.425781 l 0.527344,-0.52734375 0.703125,0.73828125 h -6.609375 c -0.304688,0 -0.585938,0.0351563 -0.84375,0.10546875 L 27.632977,0.20992188 h 3.585937 V -2.7432031 h -1.265625 c -0.304687,0 -0.585937,0.035156 -0.84375,0.1054687 z m 1.933594,-4.3242188 c 0.515625,0.140625 0.84375,0.28125 0.984375,0.421875 0.140625,0.140625 0.210937,0.28125 0.210937,0.421875 0,0.1171875 -0.03516,0.234375 -0.105469,0.3515625 -0.07031,0.1171875 -0.128906,0.1757813 -0.175781,0.1757813 -0.07031,0 -0.140625,-0.09375 -0.210937,-0.28125 -0.117188,-0.3046875 -0.375,-0.6328125 -0.773438,-0.984375 z m 3.375,2.6367188 0.421875,-0.984375 h -5.871094 c 0.07031,0.5625 0.01465,0.8876953 -0.164063,0.9726562 -0.172851,0.079102 -0.316406,0.1171875 -0.433593,0.1171875 -0.09375,0 -0.175782,-0.011719 -0.246094,-0.035156 -0.07031,-0.023437 -0.105469,-0.058594 -0.105469,-0.1054688 0,-0.023437 0.03516,-0.082031 0.105469,-0.1757812 0.117187,-0.1171875 0.237305,-0.272461 0.363281,-0.46875 0.131836,-0.2021485 0.234375,-0.5039063 0.304688,-0.9023438 h 0.175781 v 0.3867188 h 5.800781 l 0.316406,-0.421875 0.738282,0.7382812 c -0.375,0 -0.808594,0.3164063 -1.300782,0.9492188 z m -3.128907,-0.1757813 -0.316406,0.1054688 c -1.101562,0.890625 -2.039062,1.4765625 -2.8125,1.7578125 l -0.07031,-0.1054688 c 0.585937,-0.3515625 1.092773,-0.7177734 1.523437,-1.1015625 0.436524,-0.3896484 0.796875,-0.8085937 1.078125,-1.2539062 z m 1.195313,-0.3515625 c 0.773437,0.2578125 1.382812,0.4921875 1.828125,0.703125 0.445312,0.2109375 0.691406,0.3955078 0.738281,0.5507813 0.04687,0.149414 0.07031,0.2460937 0.07031,0.2929687 0,0.070312 -0.02051,0.1523438 -0.05859,0.2460938 -0.03223,0.09375 -0.07031,0.140625 -0.117188,0.140625 -0.09375,0 -0.199218,-0.070312 -0.316406,-0.2109375 -0.210937,-0.2109375 -0.500976,-0.4570313 -0.867187,-0.7382813 -0.360352,-0.28125 -0.808594,-0.5625 -1.347657,-0.84375 z m 6.855469,4.42968753 c 0.02344,-0.75000003 0.03516,-1.49121093 0.03516,-2.22656253 0,-0.7412109 -0.01172,-1.4765625 -0.03516,-2.203125 l 0.527343,0.3164063 h 1.722657 l 0.351562,-0.3515625 0.457031,0.4570312 -0.28125,0.2460938 c 0,1.546875 0.01172,2.6835937 0.03516,3.4101562 l -0.492188,0.28125003 V -1.3721094 h -1.828125 v 0.38671878 z m 0.492187,-3.90234373 v 1.3710937 h 1.828125 v -1.3710937 z m 0,1.5820312 v 1.4765625 h 1.828125 v -1.4765625 z m -1.722656,-4.2539062 c 0.539062,0.3515625 0.855469,0.5976562 0.949219,0.7382812 0.09375,0.140625 0.140625,0.2578125 0.140625,0.3515625 0,0.140625 -0.04687,0.2783203 -0.140625,0.4101563 -0.09375,0.1259765 -0.152344,0.1875 -0.175782,0.1875 -0.07031,0 -0.140625,-0.1289063 -0.210937,-0.3867188 -0.117188,-0.3515625 -0.339844,-0.75 -0.667969,-1.1953125 z m -0.210938,6.71484373 c 0,0.375 0.01172,0.75 0.03516,1.125 l -0.5625,0.2109375 c 0.02344,-0.3515625 0.03516,-1.51171875 0.03516,-3.48046873 0,-1.96875 -0.01172,-3.1289063 -0.03516,-3.4804688 l 0.84375,0.421875 -0.316407,0.2109375 z m 4.359375,0.421875 c 0.75,0.1171875 1.171875,0.16113281 1.265625,0.12890625 0.09375,-0.03808594 0.140625,-0.140625 0.140625,-0.3046875 V -6.2588281 h -2.8125 c -0.304687,0 -0.585937,0.035156 -0.84375,0.1054687 l -0.316406,-0.3164062 h 3.902344 l 0.351562,-0.3515625 0.492188,0.4921875 -0.28125,0.2109375 v 5.80078123 c 0,0.3046875 -0.05566,0.52734375 -0.164063,0.66796875 -0.102539,0.140625 -0.316406,0.28125 -0.644531,0.421875 -0.1875,-0.3984375 -0.550781,-0.66796875 -1.089844,-0.80859375 z m 0,0"
         style="fill:#000000;fill-opacity:1;fill-rule:nonzero;stroke:none" />
      <path
         id="path26"
         d="m 50.091961,-2.6611719 c 0.03516,-0.1523437 0.09375,-0.3515625 0.09375,-0.4804687 0,-0.515625 -0.398438,-0.8320313 -0.867188,-0.8320313 -0.375,0 -0.5625,0.2695313 -0.691406,0.515625 -0.152344,0.3164063 -0.28125,0.8320313 -0.28125,0.8671875 0,0.082031 0.07031,0.1054688 0.128906,0.1054688 0.09375,0 0.117188,-0.046875 0.164063,-0.2226563 0.164062,-0.7148437 0.363281,-1.0429687 0.667969,-1.0429687 0.269531,0 0.269531,0.28125 0.269531,0.421875 0,0.1875 -0.03516,0.2929687 -0.09375,0.5507812 l -0.128906,0.515625 c -0.04687,0.1523438 -0.152344,0.5976563 -0.175782,0.6914063 -0.09375,0.3867187 -0.09375,0.59765623 -0.09375,0.62109373 0,0.90234375 0.738282,1.04296875 1.265625,1.04296875 1.089844,0 2.050782,-1.65234378 2.414063,-3.09374998 0.28125,0.070312 0.398437,0.082031 0.421875,0.082031 0.09375,0 0.105469,-0.09375 0.105469,-0.1289062 0,-0.070312 -0.05859,-0.082031 -0.199219,-0.1171875 -0.09375,-0.011719 -0.164063,-0.035156 -0.257813,-0.046875 0.164063,-0.7265625 0.164063,-1.1484375 0.164063,-1.3125 0,-0.796875 -0.234375,-1.8164063 -1.054688,-1.8164063 -0.75,0 -1.359375,0.9140625 -1.359375,1.640625 0,0.9023438 0.890625,1.3359375 1.523438,1.5234375 -0.152344,0.6210938 -0.328125,1.3359375 -0.644531,1.9453125 -0.363282,0.70312503 -0.691407,1.10156253 -1.078125,1.10156253 -0.5625,0 -0.691407,-0.3515625 -0.691407,-0.703125 0,-0.25781253 0.164063,-0.86718753 0.28125,-1.30078123 z m 2.074219,-0.7382812 c -0.632813,-0.2109375 -1.335938,-0.5742188 -1.335938,-1.3125 0,-0.609375 0.515625,-1.40625 1.101563,-1.40625 0.117187,0 0.316406,0.011719 0.410156,0.3984375 0.03516,0.140625 0.07031,0.3984375 0.07031,0.6914062 0,0.46875 -0.105468,1.0429688 -0.246093,1.6289063 z m 0,0"
         style="fill:#000000;fill-opacity:1;fill-rule:nonzero;stroke:none" />
    </g>
    <path
       id="path27"
       d="M 158.74187,38.26793 128.24783,14.12679"
       style="fill:none;stroke:#000000;stroke-width:0.59776;stroke-linecap:butt;stroke-linejoin:miter;stroke-miterlimit:10;stroke-dasharray:none;stroke-opacity:1"
       transform="matrix(1.3333333,0,0,-1.3333333,78.456,186.024)" />
    <path
       id="path28"
       d="M 6.04655,0 1.12408,1.48474 2.74377,0 1.12408,-1.48474 Z"
       style="fill:#000000;fill-opacity:1;fill-rule:nonzero;stroke:#000000;stroke-width:0.59776;stroke-linecap:butt;stroke-linejoin:miter;stroke-miterlimit:10;stroke-dasharray:none;stroke-opacity:1"
       transform="matrix(-1.0453467,0.82756,0.82756,1.0453467,252.16511,165.04133)" />
    <g
       id="g28"
       aria-label="(h−u&#10;o&#10;)"
       transform="matrix(1.3333333,0,0,1.3333333,208.11333,52.958667)">
      <path
         id="path29"
         d="m 3.0702734,2.1433047 c 0,-0.046875 -0.023437,-0.070312 -0.082031,-0.140625 -1.1601563,-1.05468751 -1.5117188,-2.68359376 -1.5117188,-4.2539063 0,-1.3945312 0.2695313,-3.0820312 1.5351563,-4.2890625 0.035156,-0.035156 0.058594,-0.070312 0.058594,-0.1171875 0,-0.058594 -0.046875,-0.09375 -0.1054687,-0.09375 -0.1171875,0 -0.9257813,0.6445313 -1.40625,1.6289063 -0.4335938,0.8671875 -0.64453126,1.7929687 -0.64453126,2.859375 0,0.65625 0.0703125,1.67578124 0.57421876,2.74218749 0.5273437,1.10156251 1.359375,1.75781251 1.4765625,1.75781251 0.058594,0 0.1054687,-0.035156 0.1054682,-0.09375 z m 0,0"
         style="fill:#000000;fill-opacity:1;fill-rule:nonzero;stroke:none" />
      <path
         id="path30"
         d="m 6.1757422,-5.9426328 c 0.035156,-0.1289063 0.035156,-0.140625 0.035156,-0.1757813 0,-0.082031 -0.046875,-0.1289062 -0.1289062,-0.1289062 -0.1289063,0 -0.9140625,0.070312 -1.1015625,0.09375 -0.082031,0 -0.1875,0.011719 -0.1875,0.1640625 0,0.1171875 0.1054687,0.1171875 0.2460937,0.1171875 0.421875,0 0.421875,0.070312 0.421875,0.1523437 0,0.035156 0,0.046875 -0.046875,0.2109375 l -1.2890625,5.17968754 c -0.035156,0.1171875 -0.035156,0.140625 -0.035156,0.1640625 0,0.140625 0.1171875,0.2578125 0.28125,0.2578125 0.1523437,0 0.28125,-0.08203125 0.3398437,-0.2109375 0.023437,-0.046875 0.1054688,-0.36328125 0.1523438,-0.5625 L 5.0624609,-1.4777891 c 0.023437,-0.1289062 0.1171875,-0.4804687 0.140625,-0.609375 l 0.1171875,-0.3984375 c 0.046875,-0.2109375 0.5507813,-1.265625 1.5234375,-1.265625 0.4921875,0 0.4921875,0.46875 0.4921875,0.6328125 0,0.5390625 -0.421875,1.640625 -0.5273437,1.921875 -0.1054688,0.28125004 -0.140625,0.36328129 -0.140625,0.53906254 0,0.48046875 0.3632812,0.75 0.7734375,0.75 0.8671875,0 1.21875,-1.27734374 1.21875,-1.38281254 0,-0.046875 -0.035156,-0.1054687 -0.1171875,-0.1054687 -0.1054688,0 -0.1171875,0.046875 -0.1523438,0.1640625 -0.2226562,0.76171874 -0.5976562,1.10156249 -0.9257812,1.10156249 -0.058594,0 -0.2226563,0 -0.2226563,-0.28125 0,-0.234375 0.09375,-0.45703125 0.1640625,-0.65624999 0.1757813,-0.46875 0.5390625,-1.4179688 0.5390625,-1.921875 0,-0.796875 -0.5976562,-0.984375 -1.0664062,-0.984375 -0.5507813,0 -1.0078125,0.2460937 -1.359375,0.6914062 z m 0,0"
         style="fill:#000000;fill-opacity:1;fill-rule:nonzero;stroke:none" />
      <path
         id="path31"
         d="m 17.053672,-2.0637266 c 0.164062,0 0.339844,0 0.339844,-0.1992187 0,-0.1875 -0.1875,-0.1875 -0.339844,-0.1875 h -4.96875 c -0.152344,0 -0.328125,0 -0.328125,0.1875 0,0.1992187 0.175781,0.1992187 0.328125,0.1992187 z m 0,0"
         style="fill:#000000;fill-opacity:1;fill-rule:nonzero;stroke:none" />
      <path
         id="path32"
         d="m 24.615195,-2.9309141 c 0.05859,-0.234375 0.164063,-0.65625 0.164063,-0.6914062 0,-0.1171875 -0.08203,-0.2578125 -0.28125,-0.2578125 -0.128906,0 -0.257813,0.082031 -0.328125,0.1875 -0.03516,0.09375 -0.65625,2.53125 -0.703125,2.82421874 -0.1875,0.328125 -0.550781,0.73828125 -1.042969,0.73828125 -0.5625,0 -0.5625,-0.5625 -0.5625,-0.73828125 0,-0.39843754 0.117188,-0.84375004 0.503906,-1.85156254 0.07031,-0.2109375 0.128907,-0.328125 0.128907,-0.5039062 0,-0.4453125 -0.339844,-0.75 -0.773438,-0.75 -0.867187,0 -1.230469,1.2773437 -1.230469,1.3828125 0,0.082031 0.07031,0.1054687 0.128907,0.1054687 0.09375,0 0.105468,-0.058594 0.140625,-0.1757812 0.1875,-0.6445313 0.539062,-1.0898438 0.925781,-1.0898438 0.199219,0 0.222656,0.1289063 0.222656,0.2929688 0,0.1523437 -0.03516,0.3164062 -0.117187,0.5273437 -0.421875,1.125 -0.539063,1.5 -0.539063,1.93359379 0,0.99609375 0.808594,1.08984375 1.136719,1.08984375 0.515625,0 0.890625,-0.3046875 1.101562,-0.5859375 0.175782,0.5859375 0.761719,0.5859375 0.820313,0.5859375 0.257812,0 0.480469,-0.1171875 0.679687,-0.46875 0.152344,-0.3046875 0.292969,-0.87890624 0.292969,-0.91406254 0,-0.046875 -0.02344,-0.1054687 -0.117187,-0.1054687 -0.105469,0 -0.117188,0.046875 -0.152344,0.2109375 -0.1875,0.71484374 -0.375,1.05468749 -0.679688,1.05468749 -0.210937,0 -0.28125,-0.1875 -0.28125,-0.41015625 0,-0.17578125 0.04687,-0.3515625 0.128907,-0.66796874 l 0.222656,-0.9257813 z m 0,0"
         style="fill:#000000;fill-opacity:1;fill-rule:nonzero;stroke:none" />
      <path
         id="path33"
         d="m 28.954062,-0.56958594 c 0,-0.60937496 -0.46875,-1.06640626 -1.160156,-1.06640626 -0.902344,0 -1.78125,0.79687501 -1.78125,1.62890626 0,0.64453125 0.503906,1.06640624 1.148438,1.06640624 0.9375,0 1.792968,-0.80859374 1.792968,-1.62890624 z m -1.78125,1.4296875 c -0.339843,0 -0.644531,-0.2109375 -0.644531,-0.66796875 0,-0.19921875 0.09375,-0.75 0.339844,-1.1015625 0.257812,-0.36328121 0.621094,-0.52734371 0.914062,-0.52734371 0.304688,0 0.644532,0.1757812 0.644532,0.66796871 0,0.15234375 -0.05859,0.75 -0.386719,1.18359375 -0.1875,0.234375 -0.527344,0.4453125 -0.867188,0.4453125 z m 0,0"
         style="fill:#000000;fill-opacity:1;fill-rule:nonzero;stroke:none" />
      <path
         id="path34"
         d="m 32.396445,-2.2629453 c 0,-0.7382813 -0.105468,-1.7226563 -0.574218,-2.71875 -0.539063,-1.1132813 -1.371094,-1.7695313 -1.476563,-1.7695313 -0.09375,0 -0.105469,0.070312 -0.105469,0.09375 0,0.046875 0.01172,0.082031 0.07031,0.140625 0.527344,0.46875 1.511719,1.6875 1.511719,4.2539063 0,1.28906249 -0.222657,3.08203124 -1.535157,4.3007812 -0.01172,0.023437 -0.04687,0.058594 -0.04687,0.1054688 0,0.023437 0.01172,0.09375 0.105469,0.09375 0.105469,0 0.914063,-0.6445313 1.40625,-1.62890626 0.421875,-0.8671875 0.644531,-1.79296874 0.644531,-2.87109374 z m 0,0"
         style="fill:#000000;fill-opacity:1;fill-rule:nonzero;stroke:none" />
    </g>
    <path
       id="path35"
       d="M 96.3794,107.71794 73.24767,93.10844"
       style="fill:none;stroke:#000000;stroke-width:0.59776;stroke-linecap:butt;stroke-linejoin:miter;stroke-miterlimit:10;stroke-dasharray:none;stroke-opacity:1"
       transform="matrix(1.3333333,0,0,-1.3333333,78.456,186.024)" />
    <path
       id="path36"
       d="M 6.04655,0 1.12408,1.48474 2.74377,0 1.12408,-1.48474 Z"
       style="fill:#000000;fill-opacity:1;fill-rule:nonzero;stroke:#000000;stroke-width:0.59776;stroke-linecap:butt;stroke-linejoin:miter;stroke-miterlimit:10;stroke-dasharray:none;stroke-opacity:1"
       transform="matrix(-1.12728,0.71196,0.71196,1.12728,179.04409,60.032347)" />
  </g>
</svg>
