<svg xmlns="http://www.w3.org/2000/svg" xmlns:xlink="http://www.w3.org/1999/xlink" width="266.333" height="268.013" viewBox="0 0 199.75 201.01"><path d="M25.911 174.219V60.832h113.387v113.387zM139.298 60.832" fill="#00f" fill-opacity=".3"/><path d="M139.298 151.542v-90.71h-90.71z" fill="#fff"/><path stroke-width=".797" stroke-miterlimit="10" fill="none" stroke="#000" d="M25.911 174.219V60.832h113.387v113.387zM14.572 174.219h158.035"/><path stroke-width=".638" stroke-linecap="round" stroke-linejoin="round" fill="none" stroke="#000" d="M171.053 172.147c.13.777 1.554 1.942 1.943 2.072-.389.13-1.813 1.295-1.943 2.072"/><symbol id="a"><path d="M.462.415A.057.057 0 0 1 .414.361c0-.019.014-.036.039-.036.028 0 .055.024.055.059 0 .046-.05.069-.097.069C.351.453.316.4.304.379a.115.115 0 0 1-.111.074C.086.453.028.325.028.299.028.29.035.287.042.287c.009 0 .012.005.014.011.031.099.097.13.135.13C.22.428.246.409.246.362A2.09 2.09 0 0 0 .19.118C.182.087.152.025.097.025a.112.112 0 0 0-.051.013.056.056 0 0 1 .047.054c0 .025-.019.036-.038.036C.026.128 0 .103 0 .069 0 .02.054 0 .096 0c.058 0 .092.048.107.075A.114.114 0 0 1 .314 0c.108 0 .165.13.165.154 0 .005-.003.012-.013.012C.455.166.454.162.449.147.427.075.369.025.317.025.288.025.261.043.261.091c0 .022.014.077.023.115l.033.133C.329.375.359.428.41.428A.094.094 0 0 0 .462.415z"/></symbol><use xlink:href="#a" transform="matrix(8.9664 0 0 -8.9664 177.303 176.248)"/><path stroke-width=".797" stroke-miterlimit="10" fill="none" stroke="#000" d="M25.911 185.558V27.523"/><path stroke-width=".638" stroke-linecap="round" stroke-linejoin="round" fill="none" stroke="#000" d="M23.839 29.077c.777-.13 1.943-1.554 2.072-1.943.13.389 1.295 1.813 2.072 1.943"/><symbol id="b"><path d="M.473.59c.001.005.003.011.003.017C.476.62.467.636.445.636A.044.044 0 0 1 .406.609L.389.542l-.05-.2-.01-.04C.328.298.286.219.214.219.152.219.152.282.152.301c0 .045.013.094.056.206.008.023.014.037.014.056a.083.083 0 0 1-.086.084C.04.647 0 .505 0 .493 0 .484.007.481.014.481.025.481.026.487.03.5c.021.074.061.122.103.122.024 0 .024-.019.024-.033A.166.166 0 0 0 .144.53C.097.406.084.364.084.316c0-.111.09-.122.127-.122.049 0 .084.026.102.044C.3.187.289.142.25.092.22.052.18.025.136.025c-.028 0-.061.01-.075.038.053 0 .06.044.06.054 0 .022-.016.036-.038.036C.059.153.027.134.027.088.027.036.073 0 .136 0c.102 0 .211.087.24.204L.473.59z"/></symbol><use xlink:href="#b" transform="matrix(8.9664 0 0 -8.9664 23.741 23.191)"/><symbol id="c"><path d="M.433.342A.541.541 0 0 1 .395.57a.19.19 0 0 1-.178.118.19.19 0 0 1-.18-.12A.54.54 0 0 1 0 .342.51.51 0 0 1 .045.101.19.19 0 0 1 .216 0a.19.19 0 0 1 .181.12c.03.067.036.142.036.222M.217.025c-.03 0-.102.014-.121.127-.01.059-.01.145-.01.202 0 .068 0 .147.012.202.02.089.084.107.118.107.038 0 .101-.02.12-.113C.347.495.347.417.347.354c0-.062 0-.146-.01-.205C.316.035.242.025.217.025z"/></symbol><use xlink:href="#c" transform="matrix(8.9664 0 0 -8.9664 18.142 183.714)"/><path stroke-width=".797" stroke-dasharray="2.98883,2.98883" stroke-miterlimit="10" fill="none" stroke="red" d="m48.588 60.832 90.71 90.71"/><path d="M50.58 60.832a1.993 1.993 0 1 0-3.984 0 1.993 1.993 0 0 0 3.985 0zM141.29 151.542a1.993 1.993 0 1 0-3.984 0 1.993 1.993 0 0 0 3.985 0zm-1.992 0"/></svg>